+8_ID_stride6.mot
nRows=15
nColumns=38

name +8_ID_stride6.mot
datacolumns 38
datarows 15
range 3.3350000000 3.4050000000
endheader
time	pelvis_tilt_moment	pelvis_list_moment	pelvis_rotation_moment	pelvis_tx_force	pelvis_ty_force	pelvis_tz_force	hip_flexion_r_moment	hip_adduction_r_moment	hip_rotation_r_moment	knee_angle_r_moment	ankle_angle_r_moment	subtalar_angle_r_moment	mtp_angle_r_moment	hip_flexion_l_moment	hip_adduction_l_moment	hip_rotation_l_moment	knee_angle_l_moment	ankle_angle_l_moment	subtalar_angle_l_moment	mtp_angle_l_moment	lumbar_extension_moment	lumbar_bending_moment	lumbar_rotation_moment	arm_flex_r_moment	arm_add_r_moment	arm_rot_r_moment	elbow_flex_r_moment	pro_sup_r_moment	wrist_flex_r_moment	wrist_dev_r_moment	arm_flex_l_moment	arm_add_l_moment	arm_rot_l_moment	elbow_flex_l_moment	pro_sup_l_moment	wrist_flex_l_moment	wrist_dev_l_moment
        3.3350000000	      -37.9171659328	      -71.7649395926	      -45.6195166226	       27.8162517779	       30.9793020592	      207.8779062993	     -175.7991777599	      -18.7262206175	       -2.4433046623	      -83.8000178990	       -0.9041480099	       -0.1547399905	       -0.0232939537	       96.6226998945	      -58.5731658879	       12.3549541194	       36.4123702265	        3.9534756651	       -1.2033918392	        0.1245800617	        9.7589483239	       -6.0233645208	      -10.6681004611	       -2.4424183865	       -2.1972694200	       -1.4378821119	       -0.0397260664	       -0.0354935383	       -0.1330987745	       -0.0192372268	       -1.0992680444	        2.7615543551	        2.0698181418	       -0.2496568251	        0.0544716081	        0.1942815304	        0.0625249657	
        3.3400000000	       -3.6595106053	      -19.1961777530	      -38.0069102442	        9.2770105932	      177.4227269807	      221.3373532993	     -113.5283652321	      -20.9716348281	        2.5264286836	      -46.2697439490	        9.8356359011	        4.7142926452	        0.0609812018	       87.0470242243	      -50.4180606633	       13.8491319775	       36.6985567241	        4.4998580284	       -1.2589954877	        0.1867688097	       21.8429542887	      -18.3881191640	      -13.6001924791	       -3.9131597912	       -1.9056765603	       -1.3607906733	        0.3345633735	       -0.0403214025	       -0.1291331617	       -0.0401673603	       -2.2010018076	        2.6218536940	        2.2585903685	        0.0738761450	        0.0554979863	        0.2302534627	        0.0543523632	
        3.3450000000	       37.1313851282	       15.0591194891	      -27.9187644030	      -13.0169496457	      302.2803914041	      219.1906199817	      -78.8172063026	      -32.7799701733	       12.2591091818	      -25.2634293207	       12.4658381930	       10.0268646861	        0.1496708415	       79.3572910367	      -40.2373441903	       14.5056045658	       36.0911299005	        5.0167142873	       -1.3170180286	        0.2455919360	       37.2269811301	      -32.1394994851	      -14.7214093986	       -4.9065032930	       -1.0853738122	       -0.9095438319	        0.9969067357	       -0.0422334830	       -0.0793778415	       -0.0833369944	       -3.1930825549	        2.0455671977	        2.2090265298	        0.6731231240	        0.0405883027	        0.2446749141	        0.0055032377	
        3.3500000000	       76.1083252228	       42.8786882111	      -15.4373319096	      -27.8407868244	      383.8499110923	      175.5269722821	      -57.0060934563	      -47.3572116875	       23.3435370864	      -12.5696787485	        6.0926059790	       15.6218650196	        0.2326282544	       75.5155765214	      -29.2451102907	       14.0929209696	       35.1041640310	        5.4725546228	       -1.3618370228	        0.2963584165	       52.1506770828	      -44.4094722757	      -13.4562354181	       -5.0172772127	       -0.0670245101	       -0.3218216222	        1.8105988160	       -0.0417515181	       -0.0115926161	       -0.1392602118	       -3.8238602296	        1.3284726951	        1.8902067743	        1.4207645766	        0.0162614021	        0.2322552398	       -0.0639470436	
        3.3550000000	       99.9002811507	       60.0147497666	       -1.6061256052	      -29.1326741125	      395.8960844584	      102.1706637923	      -52.1302452710	      -60.4889146395	       33.7788036804	       -6.0017147837	       -6.2393422162	       21.1609030133	        0.2982221056	       74.9602016203	      -18.6723487740	       13.1187268602	       34.0854095507	        5.8079979722	       -1.3698742494	        0.3340064213	       61.4597790611	      -48.8982711715	      -10.7828109078	       -4.8482496654	        0.8741676264	        0.2663868324	        2.5705772136	       -0.0403464168	        0.0593374557	       -0.1927056754	       -3.9512123605	        0.6662080327	        1.4215441824	        2.1291141668	       -0.0114243983	        0.2057277374	       -0.1364298953	
        3.3600000000	      106.7383166208	       65.4595717113	       12.6030369960	      -12.1802992212	      336.8233610961	       14.7483546659	      -55.8749620160	      -66.6389553718	       41.4774283623	       -3.6775829127	      -24.4167303187	       26.3517915743	        0.3363662592	       76.8988195571	       -9.4353156099	       11.2389193663	       33.2555346238	        5.9516285248	       -1.3410486410	        0.3542912692	       64.3395229084	      -48.9216263316	       -6.2226066807	       -3.7279326220	        1.5000663231	        0.7395817561	        3.1130442350	       -0.0368635403	        0.1200934239	       -0.2305035960	       -3.7565739151	        0.2376269180	        0.9094612242	        2.6490353560	       -0.0369370187	        0.1609700927	       -0.1958757673	
        3.3650000000	       88.8947086262	       53.4716047924	       25.3464238398	       21.0573119166	      202.4401088645	      -55.1299972213	      -77.9427402368	      -65.1010082223	       45.2429092181	       -3.3114768128	      -42.8749777609	       30.9156461060	        0.3485293813	       79.5118834374	       -2.1432811383	        9.0007587845	       32.6487329469	        5.9529345889	       -1.2575114402	        0.3599319506	       59.9948971462	      -39.3638393644	       -0.8454160781	       -2.3378035646	        1.7477839274	        1.0386789968	        3.3722900313	       -0.0321909183	        0.1625500687	       -0.2472668883	       -3.2734434611	        0.0823813951	        0.4603700768	        2.9122254366	       -0.0557551619	        0.1116652705	       -0.2319458105	
        3.3700000000	       50.5167593364	       26.8385963186	       35.0518420388	       59.4496017972	       38.6678401535	      -85.2272592044	     -108.4392990282	      -53.1444475115	       43.3718096451	       -1.1923339638	      -57.3696494627	       34.5519060174	        0.3291951315	       80.5960156877	        2.7838209676	        6.7532028911	       32.1254704741	        5.7564697614	       -1.1406479783	        0.3485528177	       50.6422561646	      -24.9518914884	        4.7027093416	       -0.9472774434	        1.5775719877	        1.1569326114	        3.3313866373	       -0.0269796096	        0.1852209502	       -0.2409431743	       -2.7946828803	        0.2415908061	        0.1336704842	        2.9017535789	       -0.0662754255	        0.0654085441	       -0.2420452732	
        3.3750000000	        1.1587189364	       -5.4863420684	       41.0087109496	       94.1265982248	     -120.6151213584	      -76.9309827407	     -139.5850974648	      -35.0151937858	       37.8123519925	        6.1739636165	      -66.2090542770	       37.0191507709	        0.2881479321	       79.7036140706	        5.2472640564	        4.8201405784	       31.4884937692	        5.4123875021	       -1.0068967060	        0.3254578465	       39.7360708938	       -8.7953954173	        9.8662903997	        0.2687988881	        1.2091534540	        1.1784776170	        3.1993265083	       -0.0221946683	        0.1973090064	       -0.2263470203	       -2.4184182983	        0.5602917336	       -0.0806754242	        2.8210358940	       -0.0718791869	        0.0269200887	       -0.2411663342	
        3.3800000000	      -43.9118884083	      -27.1036347749	       43.7571161937	      110.0841058792	     -228.0262697641	      -53.1105359156	     -154.8283268611	      -17.7118124990	       30.7037847744	       21.5983355050	      -71.5193462531	       38.6511455291	        0.2331689759	       77.3781124299	        5.3939557710	        3.4470101162	       30.6282737052	        4.9955898433	       -0.8762111129	        0.2951871583	       32.0603926529	        3.5411856876	       14.1583545935	        1.2958178965	        1.0693291154	        1.2233547117	        3.2113288107	       -0.0204383863	        0.2122782080	       -0.2258105529	       -2.1047046151	        0.8119524370	       -0.2626363780	        2.8456274541	       -0.0788471345	       -0.0024132568	       -0.2467182101	
        3.3850000000	      -72.3413423130	      -37.0474416028	       45.3737963479	      115.6611667543	     -280.4078609829	      -32.9179581263	     -160.2806124792	       -7.0640653698	       26.0941298595	       44.7166422993	      -75.8960802350	       40.0753250175	        0.1739911559	       74.7062923433	        4.6096070242	        2.4746067624	       29.5154409512	        4.5688057075	       -0.7552016936	        0.2628966364	       28.3229740366	        9.9965091418	       17.5968016430	        2.2312186357	        1.0437620415	        1.3602776634	        3.4344279221	       -0.0199705433	        0.2369794841	       -0.2402040799	       -1.7855907659	        0.9305821711	       -0.4614752897	        3.0783733805	       -0.0905146307	       -0.0258328273	       -0.2742245433	
        3.3900000000	      -76.1670940786	      -27.4944266925	       47.1589692565	       98.9441518832	     -251.9824148319	      -39.4841325825	     -145.9953379276	       -6.3582678967	       26.9015289345	       71.8415552890	      -82.8483242682	       42.3750366910	        0.1201166770	       73.1651402792	        3.0702900835	        1.8181561300	       28.1394811349	        4.1986692867	       -0.6483459967	        0.2336988504	       31.4136100106	        6.8811590355	       20.0792551477	        3.2140618809	        1.6455038027	        1.6910329657	        4.1412185362	       -0.0234835193	        0.2837641446	       -0.2954188292	       -1.3126118863	        0.6802762925	       -0.7744002743	        3.7234878634	       -0.1133993388	       -0.0456994467	       -0.3402103761	
        3.3950000000	      -59.8277431073	       -9.7033961776	       50.5066231302	       67.7270113432	     -165.2137486991	      -69.6977383563	     -124.8980514944	      -13.0146535678	       32.6621879391	       96.0340431074	      -94.2406018418	       46.2886859648	        0.0772443255	       73.3756818216	        2.1313176542	        1.0879774491	       26.4653363317	        3.9053760509	       -0.5432294288	        0.2101265645	       39.8143462961	       -4.1007495563	       21.8530547942	        4.3413048800	        2.7446417092	        2.2033687175	        5.2508098404	       -0.0293946140	        0.3512291723	       -0.3838531836	       -0.6534192463	        0.1092514325	       -1.2167402652	        4.7102795303	       -0.1468342478	       -0.0659822264	       -0.4406769014	
        3.4000000000	      -25.3543160386	        6.4253766296	       55.7754100651	       26.0010125261	      -33.1704879482	     -116.7784243622	     -107.3324924325	      -26.1079640229	       43.0120197136	      111.2824320342	     -110.5382248058	       51.8508606983	        0.0473709913	       74.0337025330	        2.3500545544	        0.0794801267	       24.4011416176	        3.6655652939	       -0.4290207132	        0.1921928717	       52.8290815281	      -22.1181918313	       23.2519629189	        5.5747794187	        4.2297762527	        2.8606063678	        6.6395113220	       -0.0362481408	        0.4346405843	       -0.4951172512	        0.1193498496	       -0.7359615540	       -1.7659725069	        5.9218556324	       -0.1879685903	       -0.0883489294	       -0.5647915408	
        3.4050000000	       15.6002645984	       12.2315799246	       62.4781055764	      -20.3605669121	      109.9530365507	     -161.5139998982	     -100.5776518537	      -40.5678129926	       54.5043643515	      115.1122151464	     -130.7049863862	       58.3011024962	        0.0294678810	       74.0673874479	        3.7579085987	       -1.2725947532	       21.8770638960	        3.4422881384	       -0.3016988017	        0.1783352777	       68.2597752326	      -43.0861655784	       24.5540141871	        6.7887517195	        5.8871001280	        3.5944849590	        8.0977251812	       -0.0416132937	        0.5254312039	       -0.6114899789	        0.8547455960	       -1.7201605153	       -2.3673799088	        7.1714028135	       -0.2315488423	       -0.1132217267	       -0.6942771285	
